<svg xmlns="http://www.w3.org/2000/svg" width="1496" height="1496"><path d="M218.516 734.305c0-151.064 58.182-292.601 163.82-398.529l-.116-.119c104.119-103.974 240.745-161.246 384.862-161.246 302.342 0 548.316 250.866 548.316 559.232 0 144.356-57.631 287.234-158.134 392.489l-.083-.083c-103.86 107.742-242.633 167.083-390.749 167.083-302.121 0-547.916-250.691-547.916-558.827zM766.432 104.58c340.453 0 617.434 282.497 617.434 629.726 0 163.135-60.73 317.072-170.976 434.757l-42.233-43.07-4.083 4.167c100.638-106.789 158.32-250.877 158.32-396.516 0-313.701-250.235-568.92-557.812-568.92-144.595 0-281.702 56.736-387.039 159.74l2.37-2.413-42.249-43.092C455.549 166.517 606.474 104.58 766.432 104.58zm677.926 1300.553l-218.026-222.36c113.827-121.351 176.531-280.155 176.531-448.467 0-357.922-285.497-649.103-636.43-649.103-165.021 0-320.724 63.945-439.704 180.056L142.322 77.168l-13.432 13.7 233.458 238.118c-105 108.802-162.828 252.284-162.828 405.32 0 318.817 254.32 578.2 566.912 578.2 150.048 0 290.729-58.98 397.406-166.07l267.085 272.395 13.435-13.7"/><path d="M472.197 1155.5c-7.951-1.343-14.406-3.85-19.194-7.474-4.824-3.643-8.756-8.118-11.687-13.31-2.95-5.233-4.953-11.154-5.946-17.608-1.049-6.642-1.457-13.634-1.215-20.758.176-5.299.732-10.664 1.641-15.97.743-4.446 1.502-8.836 2.263-13.16 29.74-4.835 59.416-8.666 88.284-11.4 29.888-2.811 62.15-4.411 95.11-4.827 2.958.437 5.437-.074 7.302-1.656 1.252-1.05 2.771-3.055 2.901-6.602.122-3.415-1.158-5.546-2.244-6.738-1.624-1.777-3.904-2.723-6.938-2.827h-.336c-33.569 0-65.806 1.428-95.795 4.258a1192.432 1192.432 0 0 0-83.154 10.823c.725-2.84.465-5.31-.76-7.334-.845-1.372-2.523-3.131-5.788-3.717-4.972-.956-8.804 1.259-10.474 5.696-.964 2.27-1.605 4.494-1.902 6.594-.09.623-.241 1.267-.426 1.93a1939.297 1939.297 0 0 0-30.873 5.677l-1.794.347c-2.177-11.199-8.266-20.63-18.205-28.126-12.383-9.328-28.608-16.736-48.228-22.035-19.246-5.192-41.279-9.063-65.489-11.495a2333.715 2333.715 0 0 0-71.633-6.036 3900.194 3900.194 0 0 1-52.864-4.503c-17.015-1.553-32.505-3.747-46.04-6.536-13.22-2.727-24.008-6.142-32.077-10.134-8.886-4.42-9.777-9.14-9.665-12.31.454-13.291 5.899-26.7 16.196-39.848 10.648-13.597 24.841-26.529 42.17-38.45 17.477-12.018 37.7-23.276 60.1-33.436 22.386-10.16 45.928-18.903 69.99-25.972 24.184-7.076 48.311-12.574 71.724-16.328 23.443-3.775 45.225-5.317 64.676-4.655 12.383.424 23.841 2.705 34.055 6.775 10.204 4.056 19.303 9.524 27.05 16.262 7.753 6.755 14.284 14.58 19.414 23.237 5.185 8.78 9.118 18.156 11.669 27.776 1.298 5.27 5.353 7.92 10.5 7.003 3.192-.589 4.909-2.29 5.78-3.614 1.345-2.046 1.716-4.607 1.085-7.617-.008-.048-.029-.103-.036-.162-2.803-11.445-7.357-22.498-13.552-32.839a118.119 118.119 0 0 0-23.008-27.664c-9.146-8.07-19.934-14.532-32.078-19.216-12.131-4.674-25.675-7.302-40.266-7.813-20.919-.71-43.942.945-68.534 4.996-24.537 4.03-49.656 10-74.664 17.72-24.963 7.72-49.511 17.077-72.96 27.815-23.498 10.767-44.721 22.885-63.089 36.008-18.563 13.255-33.746 27.429-45.147 42.122-11.78 15.205-18.043 31.106-18.6 47.275-.36 10.73 4.352 19.481 14.018 25.999 8.728 5.887 20.602 10.55 35.278 13.872 14.35 3.264 31.084 5.762 49.737 7.397 18.517 1.63 37.905 3.18 58.175 4.684a2784.064 2784.064 0 0 1 69.422 5.656c22.719 2.149 43.414 5.516 61.53 9.991 17.727 4.372 32.154 10.38 42.848 17.836 7.552 5.245 11.965 11.755 13.472 19.695l-15.189 2.936c-3.636.35-5.585 2.06-6.567 3.433-1.002 1.383-2.03 3.805-1.252 7.551.77 3.661 2.681 5.44 4.146 6.292 2.161 1.259 4.73 1.38 7.097.567 3.45-.723 6.684-1.306 10.076-1.997-2.738 8.168-7.925 16.794-15.928 25.85-12.144 13.774-27.32 26.63-45.093 38.211-17.791 11.58-37.198 21.156-57.68 28.468-20.278 7.22-38.794 10.672-54.853 10.02-8.244-.294-14.071-2.573-17.799-6.973-3.813-4.502-5.566-9.906-5.343-16.5.278-8.145 3.208-17.333 8.71-27.324 5.564-10.075 13.887-19.518 24.119-27.646 4.128-2.315 5.445-6.82 3.346-11.474-1.325-2.973-3.393-4.117-4.897-4.552-2.439-.728-5.026-.103-8.06 1.969-13.007 10.425-23.034 21.77-29.816 33.729-6.881 12.118-10.554 23.783-10.926 34.675-.382 11.342 2.8 21.115 9.443 29.063 6.754 8.078 17.05 12.423 30.61 12.905 1.263.038 2.533.067 3.824.067 11.178 0 23.32-1.675 36.141-4.997 14.035-3.65 28.273-8.77 42.308-15.202 13.934-6.417 27.71-14.023 40.947-22.613 13.302-8.64 25.223-17.843 35.416-27.38 10.336-9.62 18.765-19.717 25.065-30.002 5.029-8.24 8.185-16.302 9.528-24.064 1.112-.21 2.299-.472 3.403-.676 8.255-1.542 16.456-3.084 24.61-4.618-1.502 8.61-2.403 17.07-2.681 25.233-.286 8.496.223 17.003 1.522 25.272 1.346 8.552 3.98 16.46 7.837 23.51 3.925 7.151 9.51 13.377 16.615 18.514 7.133 5.148 16.113 8.574 26.662 10.2.686.104 1.343.162 1.985.162 4.46 0 7.8-2.594 8.912-7.087.79-3.216-.09-5.49-.974-6.833-1.418-2.146-3.792-3.489-6.993-3.963m401.425-71.025c.87.504 2.125.994 3.745.994a9.14 9.14 0 0 0 2.45-.35l16.78-3.518c5.131-1.306 7.757-5.402 6.848-10.69-.576-3.256-2.236-4.997-3.535-5.887-2.003-1.37-4.517-1.749-7.44-1.134l-17.17 3.624c-4.76 1.447-6.996 5.76-5.715 10.974.678 2.808 2.042 4.824 4.037 5.987"/><path d="M699.81 1109.231v-.005zm-43.635 30.857c.491-.842 1.234-1.862 2.346-3.065.564-.607 1.317-1.14 1.959-1.717 3.395-1.762 6.418-3.465 8.681-5.084.642-.437 1.008-.967 1.517-1.446a78.658 78.658 0 0 1 12.778-4.669 56.955 56.955 0 0 1 9.286-1.671c-6.587 5.24-12.941 9.355-18.96 12.298-6.421 3.15-12.32 4.949-17.607 5.354zm325.041 11.022a38.92 38.92 0 0 1 2.738-5.903c-.075 3.206-.733 6.168-1.987 8.97-.712 1.58-1.491 2.79-2.206 3.424.073-1.873.567-4.048 1.455-6.491zm127.96-15.724c-.883-3.275-2.663-4.872-3.998-5.628-1.301-.75-3.47-1.401-6.522-.513-16.81 5.452-37.225 7.855-60.622 6.954a263.26 263.26 0 0 1-21.363-1.616c-6.761-.787-13.403-2.016-19.638-3.624.177-1.532-.083-3.209-.769-5.005-2.312-6.104-7.07-7.124-10.809-5.99-.109.029-.22.069-.332.114-3.406 1.308-6.505 3.399-9.336 6.085-7.016 3.792-14.859 7.363-23.355 10.595a266.244 266.244 0 0 1-26.538 8.57 224.176 224.176 0 0 1-26.309 5.376c-8.525 1.2-16.399 1.704-23.33 1.436-5.844-.196-10.026-2.071-12.8-5.733-2.645-3.452-2.951-8.115-.798-14.672.805-3.463-.364-7.893-6.094-9.917-3.354-1.165-5.879-.604-7.764.655-.637.198-1.203.201-1.886.519-16.085 7.882-29.06 13.332-38.588 16.18-9.305 2.808-18.914 4.125-28.738 3.717-7.086-.247-11.856-3.338-15.027-9.745-3.554-7.142-5.141-17.24-4.705-30.001.512-15.139 3.814-33.936 9.676-55.48 1.736-4.748-.23-9.149-5.018-11.22-2.533-1.09-4.87-1.174-6.939-.255a7.602 7.602 0 0 0-4.12 4.475c-8.088 16.953-16.845 31.93-26.036 44.533-6.587 9.045-13.248 17.028-19.882 23.842a7.177 7.177 0 0 0-.408-.729c-1.317-2.072-3.533-3.378-6.577-3.87a6.904 6.904 0 0 0-.574-.056c-7.354-.265-14.674.644-21.89 2.668-7.136 2.013-13.693 4.816-19.509 8.345-1.088.663-1.956 1.41-2.974 2.101a85.999 85.999 0 0 1-7.536 3.64c-4.787 2.064-10.214 4.078-16.16 5.99-5.938 1.919-11.754 3.548-17.3 4.844-5.343 1.258-10.178 1.883-14.323 1.674-6.837-.236-12.116-2.013-15.706-5.288-4.117-3.746-7.736-8.08-10.816-12.971-2.44-3.68-5.258-5.583-8.386-5.66-2.18-.074-5.073.703-7.912 4.563a77.89 77.89 0 0 1-15.955 15.978c-4.74 3.548-9.055 5.556-12.858 5.972.14-1.958.473-4.21.992-6.719.624-2.98 1.54-6.168 2.728-9.45 1.179-3.227 2.348-5.924 3.647-8.393 1.808-4.192.36-8.354-3.777-10.86-4.266-2.565-8.7-1.59-11.326 2.517a4.994 4.994 0 0 0-.408.802c-1.27 3.132-2.782 7.154-4.48 12.044-1.8 5.1-3.107 10.182-3.869 15.091-.862 5.477-.53 10.351.975 14.466 1.093 3.017 4.25 8.136 13.003 8.449.317.008.632.008.948.008 7.263 0 14.953-2.904 22.886-8.656 5.629-4.077 10.38-8.088 14.183-11.978 3.107 3.54 6.92 6.936 11.383 10.153 6.704 4.835 14.822 7.455 24.145 7.794 5.029.17 10.796-.424 17.791-1.844a216.872 216.872 0 0 0 19.797-4.975c.187-.059.36-.13.548-.186.312 3.391 1.535 6.361 3.756 8.815 2.725 2.988 6.318 4.578 10.669 4.729 13.978.387 29.841-5.877 48.235-18.866 14.295-10.084 28.478-25.196 42.318-45.053a214.789 214.789 0 0 0-.454 8.39c-.566 16.795 1.891 30.513 7.291 40.761 5.882 11.114 15.753 17.001 29.34 17.483 1.188.037 2.367.056 3.554.056 9.955 0 19.917-1.476 29.666-4.409 8.208-2.469 18.557-6.591 30.883-12.269.493 5.11 2.224 9.644 5.258 13.538 6.01 7.766 15.204 11.912 27.309 12.347 1.41.047 2.85.076 4.314.076 6.697 0 13.996-.532 21.771-1.57 9.443-1.27 19.044-3.143 28.533-5.554a251.763 251.763 0 0 0 28.665-9.13c1.29-.495 2.496-1.086 3.766-1.6-.626 4.825-.327 9.39 1.01 13.586 1.16 3.633 4.575 9.792 14.454 10.142.296.01.603.01.899.01 7.821 0 14.045-3.793 18.053-11.042 2.56-4.673 4.183-9.3 4.86-13.832 4.092.606 8.599 1.136 13.44 1.581 6.81.634 14.223 1.097 22.024 1.37 26.057.909 48.264-1.542 66.658-7.53 4.473-2.082 6.375-6.244 5.086-11.145"/><path d="M981.621 885.897c-10.034 16.235-24.192 29.239-42.5 39.012-13.954 7.564-28.337 12.23-43.152 14.005-14.827 1.783-28.556 2.662-41.19 2.662-14.828 0-26.156-1.66-34.001-5-7.848-3.332-13.729-7.436-17.651-12.337-5.234-7.103-8.404-16.108-9.487-27.008-1.088-10.886-1.857-24.777-2.28-41.675 0-7.55-.117-16.555-.33-27.007-.226-10.439-.33-21.892-.33-34.341V710.85h63.421c12.64 0 23.641.565 33.019 1.67 9.372 1.112 18.85 3.23 28.441 6.334 11.77 4 22.558 9.445 32.37 16.339a113.37 113.37 0 0 1 25.498 24.674c7.19 9.561 12.845 20 16.994 31.342 4.14 11.33 6.216 23.446 6.216 36.338 0 22.674-5.016 42.125-15.038 58.35zM790.7 679.508v-42.676c0-16.892.104-34.677.33-53.35.213-18.675.542-35.782.979-51.345.434-8.006.756-14.444.98-19.338.215-4.888.433-9.005.651-12.34.221-3.336.543-6.105.987-8.333.426-2.222.865-4.67 1.304-7.336 3.928-1.332 9.583-2.437 17-3.333 7.41-.887 15.692-1.335 24.848-1.335 30.504 0 55.572 4.446 75.192 13.34 16.555 7.564 30.4 20.002 41.513 37.34 11.118 17.337 16.677 37.123 16.677 59.348 0 30.238-10.139 55.582-30.408 76.024-20.265 20.45-50.013 31.79-89.243 34.007-6.114.446-14.17.663-24.191.663h-36.62v-21.336zm271.664 93.025c-7.19-14.002-16.78-26.112-28.764-36.341-11.996-10.222-25.615-18.337-40.866-24.343-15.261-5.998-30.733-9.885-46.422-11.668v-2.67c29.641-6.218 53.714-18.339 72.248-36.342 18.524-18.002 27.79-41.674 27.79-71.019 0-26.67-7.196-48.68-21.58-66.02-14.38-17.337-32.688-30.22-54.919-38.675-13.957-5.333-28.441-9.005-43.482-11.003-15.037-2-30.836-2.999-47.399-2.999H719.436v162.709h-.114c.028 3.531.114 7.193.114 10.669v103.365c0 13.334-.114 26.337-.327 39.007a17483.9 17483.9 0 0 1-.652 35.011c-.226 10.67-.328 19.12-.328 25.336 0 3.614-.22 7.336-.335 11.003.01 1.134.037 2.188.037 3.365 0 5.675-.403 10.92-1.076 15.85-6.032 44.243-36.85 59.408-52.6 64.298-5.582 1.733-9.284 2.191-9.284 2.191a87.572 87.572 0 0 0 13.02-9.85c23.597-23.661 29.499-67.252 30.743-94.786V471.453H560.028v6.669c11.327 1.335 22.328 3.335 33.014 5.998 10.68 2.67 19.064 7.79 25.171 15.34 2.619 3.115 4.468 7.564 5.56 13.34 1.083 5.78 1.96 12.332 2.618 19.666.652 7.341.98 15.011.98 23.01v232.059c0 12.453-.115 24.01-.328 34.678-.226 10.67-.33 19.12-.33 25.336a725.362 725.362 0 0 1-2.283 37.348c-1.097 12.452-2.946 23.566-5.56 33.343-3.057 10.226-7.959 18.898-14.71 26.006-6.764 7.119-15.593 10.669-26.48 10.669-3.494 0-7.19-.782-11.118-2.334-3.92-1.553-6.977-3.89-9.152-7v-2.005c9.152-1.33 16.776-4.335 22.883-8.998 6.1-4.67 9.157-12.11 9.157-22.344 0-8.886-3.167-16.556-9.482-23.002-6.325-6.441-13.845-9.668-22.558-9.668-10.034 0-18.96 3.333-26.807 9.996-7.845 6.671-11.77 15.34-11.77 26.01 0 8.45 1.636 15.673 4.907 21.67 3.27 6.007 7.624 10.67 13.071 14.006 3.954 2.418 8.367 4.28 13.006 5.881.18.103.278.284.491.347.626.188 1.91.583 3.715 1.07.382.106.712.268 1.099.371.45.117.912.157 1.364.265 14.06 3.476 48.529 9.281 84.062-7.598h236.461c19.173 0 39.006-.665 59.494-2 20.487-1.336 39.003-5.106 55.58-11.34 9.582-3.552 19.172-8.769 28.768-15.668 9.583-6.888 18.303-15.22 26.15-25.007 7.85-9.777 14.163-21.108 18.96-34.008 4.793-12.892 7.194-27.341 7.194-43.346 0-17.777-3.593-33.676-10.791-47.68" fill="#7fecd3"/><text style="line-height:1.25;-inkscape-font-specification:'URW Bookman L';font-variant-ligatures:normal;font-variant-position:normal;font-variant-caps:normal;font-variant-numeric:normal;font-variant-alternates:normal;font-feature-settings:normal;text-indent:0;text-align:start;text-decoration-line:none;text-decoration-style:solid;text-decoration-color:#000;text-transform:none;text-orientation:mixed;white-space:normal;shape-padding:0" x="6232.058" y="-6697.849" transform="matrix(.11256 0 0 .15794 0 1496)" font-weight="400" font-size="391.056" font-family="URW Bookman L" letter-spacing="0" word-spacing="-121.125" stroke-width="7.5"><tspan x="6257.574" y="-6697.849" style="line-height:10.25;-inkscape-font-specification:'Courier 10 Pitch';text-align:center" font-family="Courier 10 Pitch" letter-spacing="51.033" text-anchor="middle" fill="#7af3d7">Joe &amp; Blog</tspan></text></svg>